# xmcd
#
# Track frame offsets: 
#        150
#        14635
#        29172
#
# Disc length: 652 seconds
#
# Revision: 1
# Processed by: cddbd v1.5PL3 Copyright (c) Steve Scherf et al.
# Submitted via: ExactAudioCopy v0.95a4
#
DISCID=24028a03
DTITLE=Jessica Simpson - With You
DYEAR=2003
DGENRE=Pop
TTITLE0=With You
TTITLE1=Irresistible
TTITLE2=I Wanna Love You Forever
EXTD=
EXTT0=
EXTT1=
EXTT2=
PLAYORDER=
